<?xml version="1.0" encoding="UTF-8"?>
<svg version="1.1" xmlns="http://www.w3.org/2000/svg" width="318" height="159">
<path d="M0 0 C104.94 0 209.88 0 318 0 C318 52.47 318 104.94 318 159 C213.06 159 108.12 159 0 159 C0 106.53 0 54.06 0 0 Z " fill="#F3F3F3" transform="translate(0,0)"/>
<path d="M0 0 C1.33056974 1.09430034 2.60591159 2.25566307 3.859375 3.4375 C2.46590124 6.58954981 0.83452421 8.69921773 -1.6171875 11.109375 C-2.2875 11.77324219 -2.9578125 12.43710937 -3.6484375 13.12109375 C-4.34710938 13.80300781 -5.04578125 14.48492187 -5.765625 15.1875 C-6.47203125 15.88488281 -7.1784375 16.58226563 -7.90625 17.30078125 C-9.64661203 19.01762488 -11.39147481 20.72961832 -13.140625 22.4375 C-16.76378402 21.04779517 -19.98566968 19.43671831 -23.296875 17.4375 C-31.48653133 12.9956525 -41.04110479 13.34687954 -50.140625 14.4375 C-54.67507662 15.81301357 -58.27678193 17.71965901 -62.140625 20.4375 C-63.16349609 21.12199219 -63.16349609 21.12199219 -64.20703125 21.8203125 C-69.30349705 25.67293244 -72.23210705 30.84080637 -75.140625 36.4375 C-75.48351562 37.03949219 -75.82640625 37.64148438 -76.1796875 38.26171875 C-79.90029891 45.99850416 -79.34014976 56.72470051 -77.26171875 64.890625 C-73.25318156 75.20963163 -67.03957229 83.29797979 -57.140625 88.4375 C-54.18502863 89.64725453 -51.22553529 90.61760988 -48.140625 91.4375 C-47.47675781 91.62183594 -46.81289062 91.80617188 -46.12890625 91.99609375 C-37.04900319 94.01186791 -26.59806613 91.78456856 -18.703125 87.0625 C-11.10063822 81.73761773 -7.05513938 75.18104313 -4.140625 66.4375 C-16.020625 66.4375 -27.900625 66.4375 -40.140625 66.4375 C-40.140625 57.8575 -40.140625 49.2775 -40.140625 40.4375 C-32.0740991 40.41494551 -24.00759754 40.39658291 -15.94104862 40.38568783 C-12.19579463 40.38045986 -8.45056324 40.37336378 -4.70532227 40.36206055 C-1.09380813 40.35122859 2.51768421 40.34522251 6.12921333 40.34262276 C7.50997829 40.34076906 8.890742 40.33714951 10.27149773 40.33176994 C12.19913452 40.32455553 14.12679307 40.32409191 16.05444336 40.32397461 C17.15364609 40.321754 18.25284882 40.31953339 19.38536072 40.31724548 C21.859375 40.4375 21.859375 40.4375 22.859375 41.4375 C24.53115589 63.16811853 21.97536971 82.81864628 7.609375 99.875 C-4.33746186 112.21185387 -20.05824574 118.53949521 -37.09423828 118.81787109 C-46.76319088 118.79929968 -55.13920282 118.36339201 -64.140625 114.4375 C-65.6565625 113.80134766 -65.6565625 113.80134766 -67.203125 113.15234375 C-83.73914124 105.58036692 -95.63723545 92.34795562 -102.140625 75.4375 C-104.85714441 67.58934348 -105.65794062 60.27675276 -105.578125 52 C-105.57055176 50.89833496 -105.56297852 49.79666992 -105.55517578 48.66162109 C-105.39874315 40.96673423 -104.65285287 34.38536509 -101.140625 27.4375 C-100.71652344 26.52613281 -100.29242188 25.61476562 -99.85546875 24.67578125 C-91.13059033 7.25032769 -77.17176284 -3.77181575 -59.28125 -10.6640625 C-39.25279038 -16.71786244 -16.71520828 -12.20088195 0 0 Z " fill="#3B7DEB" transform="translate(202.140625,26.5625)"/>
<path d="M0 0 C1.33056974 1.09430034 2.60591159 2.25566307 3.859375 3.4375 C2.46590124 6.58954981 0.83452421 8.69921773 -1.6171875 11.109375 C-2.2875 11.77324219 -2.9578125 12.43710937 -3.6484375 13.12109375 C-4.34710938 13.80300781 -5.04578125 14.48492187 -5.765625 15.1875 C-6.47203125 15.88488281 -7.1784375 16.58226563 -7.90625 17.30078125 C-9.64661203 19.01762488 -11.39147481 20.72961832 -13.140625 22.4375 C-16.76378402 21.04779517 -19.98566968 19.43671831 -23.296875 17.4375 C-31.48653133 12.9956525 -41.04110479 13.34687954 -50.140625 14.4375 C-54.67507662 15.81301357 -58.27678193 17.71965901 -62.140625 20.4375 C-63.16349609 21.12199219 -63.16349609 21.12199219 -64.20703125 21.8203125 C-69.30349705 25.67293244 -72.23210705 30.84080637 -75.140625 36.4375 C-75.48351562 37.03949219 -75.82640625 37.64148438 -76.1796875 38.26171875 C-80.03677623 46.28230045 -78.95988682 58.02022402 -77.140625 66.4375 C-80.05283771 68.73487247 -82.97114124 71.02437699 -85.890625 73.3125 C-86.715625 73.96347656 -87.540625 74.61445312 -88.390625 75.28515625 C-89.58945313 76.22294922 -89.58945313 76.22294922 -90.8125 77.1796875 C-91.5456543 77.7557373 -92.27880859 78.33178711 -93.03417969 78.92529297 C-95.00761569 80.34201325 -96.93821927 81.42334875 -99.140625 82.4375 C-99.77258884 80.94042061 -100.39576893 79.43963297 -101.015625 77.9375 C-101.53769531 76.68453125 -101.53769531 76.68453125 -102.0703125 75.40625 C-106.9205695 61.95298241 -108.04597736 43.2490803 -102.39453125 29.91796875 C-101.98074219 29.09941406 -101.56695312 28.28085937 -101.140625 27.4375 C-100.71652344 26.52613281 -100.29242188 25.61476562 -99.85546875 24.67578125 C-91.13059033 7.25032769 -77.17176284 -3.77181575 -59.28125 -10.6640625 C-39.25279038 -16.71786244 -16.71520828 -12.20088195 0 0 Z " fill="#E23F2C" transform="translate(202.140625,26.5625)"/>
<path d="M0 0 C2.56973293 2.3210491 4.04375487 4.7168428 5.6875 7.75 C10.68045856 16.20720882 17.82303212 21.75719754 27.1875 24.68359375 C36.89858359 27.12822417 48.13628815 26.91087214 57.04296875 21.8359375 C59.8911027 20.6193693 61.07553226 20.93579541 64 22 C66.68728036 23.78703396 69.14829668 25.80946813 71.625 27.875 C72.29273438 28.41769531 72.96046875 28.96039063 73.6484375 29.51953125 C76.56535943 31.90557339 79.36639772 34.30048276 82 37 C74.3819731 42.66810268 67.30736825 47.51889216 58 50 C57.35579102 50.17370117 56.71158203 50.34740234 56.04785156 50.52636719 C42.48246636 53.89817981 26.85312777 53.60577991 14 48 C12.4840625 47.36384766 12.4840625 47.36384766 10.9375 46.71484375 C-1.9457813 40.81548407 -13.61355719 30.85476309 -20 18 C-20.0390625 15.96484375 -20.0390625 15.96484375 -19 14 C-16.5234375 11.81640625 -16.5234375 11.81640625 -13.375 9.5625 C-12.83391602 9.17070557 -12.29283203 8.77891113 -11.73535156 8.37524414 C-10.16393538 7.24035854 -8.58215645 6.11986389 -7 5 C-6.22398438 4.44054687 -5.44796875 3.88109375 -4.6484375 3.3046875 C-3.10571916 2.19367635 -1.5541469 1.09496714 0 0 Z " fill="#2CA24C" transform="translate(124,93)"/>
<path d="M0 0 C7.68614264 4.88576509 14.83381472 10.39553361 22 16 C21.75636719 16.97453125 21.75636719 16.97453125 21.5078125 17.96875 C20.85938857 21.83934209 20.854707 25.58345126 20.875 29.5 C20.87113281 30.24636719 20.86726563 30.99273437 20.86328125 31.76171875 C20.86521484 32.85419922 20.86521484 32.85419922 20.8671875 33.96875 C20.86831543 34.62294922 20.86944336 35.27714844 20.87060547 35.95117188 C21.02289799 38.36256589 21.48427196 40.64209344 22 43 C19.08778729 45.29737247 16.16948376 47.58687699 13.25 49.875 C12.0125 50.85146484 12.0125 50.85146484 10.75 51.84765625 C9.95078125 52.47285156 9.1515625 53.09804687 8.328125 53.7421875 C7.5949707 54.3182373 6.86181641 54.89428711 6.10644531 55.48779297 C4.13300931 56.90451325 2.20240573 57.98584875 0 59 C-0.63196384 57.50292061 -1.25514393 56.00213297 -1.875 54.5 C-2.39707031 53.24703125 -2.39707031 53.24703125 -2.9296875 51.96875 C-5.76785925 44.0964488 -6.38621524 37.08105512 -6.375 28.75 C-6.37483887 27.63987549 -6.37467773 26.52975098 -6.37451172 25.38598633 C-6.26520007 17.56329968 -5.54466907 11.07640139 -2 4 C-1.62617187 3.24332031 -1.25234375 2.48664062 -0.8671875 1.70703125 C-0.58101563 1.14371094 -0.29484375 0.58039062 0 0 Z " fill="#F0B402" transform="translate(103,50)"/>
</svg>
